<mxfile host="app.diagrams.net" modified="2024-06-05T21:20:52.973Z" agent="Mozilla/5.0 (Macintosh; Intel Mac OS X 10_15_7) AppleWebKit/605.1.15 (KHTML, like Gecko) Version/17.4.1 Safari/605.1.15" etag="OjbbaN2ge2NBYieeSSa2" scale="1" border="0" version="24.4.14" type="device">
  <diagram id="uuqRldwOgIbGxOvL4-xz" name="example">
    <mxGraphModel dx="2293" dy="987" grid="1" gridSize="10" guides="1" tooltips="1" connect="1" arrows="1" fold="1" page="1" pageScale="1" pageWidth="827" pageHeight="1169" math="0" shadow="0">
      <root>
        <mxCell id="0" />
        <mxCell id="1" value="diagram" parent="0" />
        <mxCell id="o7ktDmw5J8hLE7qY6G8m-16" value="" style="rounded=1;whiteSpace=wrap;html=1;fillColor=none;strokeWidth=1.2;strokeColor=default;dashed=1;" vertex="1" parent="1">
          <mxGeometry x="-30" y="250" width="320" height="270" as="geometry" />
        </mxCell>
        <mxCell id="Zn63RdA2QdHTaaOqL-2k-1" value="" style="rounded=1;whiteSpace=wrap;html=1;fillColor=#ebf0fb;strokeWidth=1;strokeColor=none;" parent="1" vertex="1">
          <mxGeometry x="602" y="350" width="300" height="125" as="geometry" />
        </mxCell>
        <mxCell id="kkvrxajpSoupCZYvbQBq-20" value="" style="image;aspect=fixed;html=1;points=[];align=center;fontSize=12;image=img/lib/azure2/general/Browser.svg;" parent="1" vertex="1">
          <mxGeometry x="420" y="580" width="60" height="48" as="geometry" />
        </mxCell>
        <mxCell id="f0Yy0Vt2ueYXvtgh_L0p-17" value="" style="group" parent="1" vertex="1" connectable="0">
          <mxGeometry x="422" y="592" width="60" height="36" as="geometry" />
        </mxCell>
        <mxCell id="f0Yy0Vt2ueYXvtgh_L0p-6" value="" style="image;aspect=fixed;html=1;points=[];align=center;fontSize=12;image=img/lib/azure2/general/File.svg;" parent="f0Yy0Vt2ueYXvtgh_L0p-17" vertex="1">
          <mxGeometry x="19" width="20" height="24.64" as="geometry" />
        </mxCell>
        <mxCell id="Zn63RdA2QdHTaaOqL-2k-25" value="" style="group;fontSize=10;" parent="f0Yy0Vt2ueYXvtgh_L0p-17" vertex="1" connectable="0">
          <mxGeometry y="20" width="60" height="16" as="geometry" />
        </mxCell>
        <mxCell id="Zn63RdA2QdHTaaOqL-2k-18" value="index.html" style="text;html=1;strokeColor=none;fillColor=none;align=center;verticalAlign=middle;whiteSpace=wrap;rounded=0;fontColor=#000000;fontFamily=Azure;fontSource=https%3A%2F%2Fc.s-microsoft.com%2Fstatic%2Ffonts%2Fsegoe-ui%2Fwest-european%2Fnormal%2Flatest.woff2;fontSize=11;" parent="Zn63RdA2QdHTaaOqL-2k-25" vertex="1">
          <mxGeometry x="-0.8099999999999987" y="4.966037735849056" width="60.81" height="6.067924528301887" as="geometry" />
        </mxCell>
        <mxCell id="f0Yy0Vt2ueYXvtgh_L0p-23" value="" style="image;aspect=fixed;html=1;points=[];align=center;fontSize=12;image=img/lib/azure2/other/Azure_A.svg;" parent="1" vertex="1">
          <mxGeometry x="773" y="250" width="42" height="39.57" as="geometry" />
        </mxCell>
        <mxCell id="f0Yy0Vt2ueYXvtgh_L0p-24" value="" style="group;fontSize=14;" parent="1" vertex="1" connectable="0">
          <mxGeometry x="603.5" y="383.5" width="105.5" height="65.5" as="geometry" />
        </mxCell>
        <mxCell id="Zn63RdA2QdHTaaOqL-2k-53" value="Azure Storage&lt;div style=&quot;font-size: 12px;&quot;&gt;Account&lt;/div&gt;" style="text;html=1;strokeColor=none;fillColor=none;align=center;verticalAlign=middle;whiteSpace=wrap;rounded=0;fontColor=#000000;fontFamily=Azure;fontSource=https%3A%2F%2Fc.s-microsoft.com%2Fstatic%2Ffonts%2Fsegoe-ui%2Fwest-european%2Fnormal%2Flatest.woff2;fontSize=12;" parent="f0Yy0Vt2ueYXvtgh_L0p-24" vertex="1">
          <mxGeometry y="45.5" width="80" height="20" as="geometry" />
        </mxCell>
        <mxCell id="f0Yy0Vt2ueYXvtgh_L0p-1" value="" style="image;aspect=fixed;html=1;points=[];align=center;fontSize=12;image=img/lib/azure2/storage/Storage_Accounts.svg;" parent="f0Yy0Vt2ueYXvtgh_L0p-24" vertex="1">
          <mxGeometry x="15" width="50" height="40" as="geometry" />
        </mxCell>
        <mxCell id="f0Yy0Vt2ueYXvtgh_L0p-4" value="" style="group" parent="f0Yy0Vt2ueYXvtgh_L0p-24" vertex="1" connectable="0">
          <mxGeometry x="35.5" y="-24.5" width="70" height="56" as="geometry" />
        </mxCell>
        <mxCell id="f0Yy0Vt2ueYXvtgh_L0p-2" value="" style="image;aspect=fixed;html=1;points=[];align=center;fontSize=12;image=img/lib/azure2/general/Browser.svg;" parent="f0Yy0Vt2ueYXvtgh_L0p-4" vertex="1">
          <mxGeometry x="23.486842105263158" y="16" width="16.447368421052634" height="13.157894736842106" as="geometry" />
        </mxCell>
        <mxCell id="f0Yy0Vt2ueYXvtgh_L0p-3" value="&lt;div&gt;&lt;font style=&quot;font-size: 11px;&quot;&gt;...&lt;/font&gt;&lt;/div&gt;" style="text;html=1;strokeColor=none;fillColor=none;align=center;verticalAlign=middle;whiteSpace=wrap;rounded=0;fontColor=#FFFFFF;fontFamily=Azure;fontSource=https%3A%2F%2Fc.s-microsoft.com%2Fstatic%2Ffonts%2Fsegoe-ui%2Fwest-european%2Fnormal%2Flatest.woff2;fontSize=42;spacingLeft=0;" parent="f0Yy0Vt2ueYXvtgh_L0p-4" vertex="1">
          <mxGeometry x="-3" y="-18" width="70" height="46" as="geometry" />
        </mxCell>
        <mxCell id="f0Yy0Vt2ueYXvtgh_L0p-29" value="Microsoft&lt;div style=&quot;font-size: 16px;&quot;&gt;Azure&lt;/div&gt;" style="text;html=1;strokeColor=none;fillColor=none;align=left;verticalAlign=middle;whiteSpace=wrap;rounded=0;fontColor=#000000;fontFamily=Azure;fontSource=https%3A%2F%2Fc.s-microsoft.com%2Fstatic%2Ffonts%2Fsegoe-ui%2Fwest-european%2Fnormal%2Flatest.woff2;fontSize=16;" parent="1" vertex="1">
          <mxGeometry x="822" y="260" width="80" height="20" as="geometry" />
        </mxCell>
        <mxCell id="f0Yy0Vt2ueYXvtgh_L0p-30" value="" style="edgeStyle=orthogonalEdgeStyle;rounded=1;orthogonalLoop=1;jettySize=auto;html=1;fontColor=#007FFF;strokeColor=#000000;endArrow=block;endFill=1;entryX=-0.01;entryY=0.463;entryDx=0;entryDy=0;entryPerimeter=0;exitX=0.95;exitY=0.528;exitDx=0;exitDy=0;exitPerimeter=0;startArrow=none;startFill=0;curved=0;" parent="1" edge="1" target="f0Yy0Vt2ueYXvtgh_L0p-1" source="f0Yy0Vt2ueYXvtgh_L0p-6">
          <mxGeometry relative="1" as="geometry">
            <mxPoint x="400" y="531.0999999999999" as="sourcePoint" />
            <mxPoint x="517" y="531.0799999999999" as="targetPoint" />
          </mxGeometry>
        </mxCell>
        <mxCell id="o7ktDmw5J8hLE7qY6G8m-2" value="" style="group" vertex="1" connectable="0" parent="1">
          <mxGeometry x="771.9953846153846" y="369.9993548387097" width="83" height="39.483870967741936" as="geometry" />
        </mxCell>
        <mxCell id="o7ktDmw5J8hLE7qY6G8m-3" value="" style="image;aspect=fixed;html=1;points=[];align=center;fontSize=12;image=img/lib/azure2/general/File.svg;" vertex="1" parent="o7ktDmw5J8hLE7qY6G8m-2">
          <mxGeometry x="11.846153846153845" width="21.538461538461537" height="26.535384615384615" as="geometry" />
        </mxCell>
        <mxCell id="o7ktDmw5J8hLE7qY6G8m-4" value="404.html" style="text;html=1;strokeColor=none;fillColor=none;align=left;verticalAlign=middle;whiteSpace=wrap;rounded=0;fontColor=#000000;fontFamily=Azure;fontSource=https%3A%2F%2Fc.s-microsoft.com%2Fstatic%2Ffonts%2Fsegoe-ui%2Fwest-european%2Fnormal%2Flatest.woff2;fontSize=11;" vertex="1" parent="o7ktDmw5J8hLE7qY6G8m-2">
          <mxGeometry y="25.548387096774196" width="45.230769230769226" height="13.935483870967744" as="geometry" />
        </mxCell>
        <mxCell id="o7ktDmw5J8hLE7qY6G8m-6" value="" style="group" vertex="1" connectable="0" parent="1">
          <mxGeometry x="785.0038461538462" y="396.9977419354839" width="68.92307692307692" height="55.811612903225814" as="geometry" />
        </mxCell>
        <mxCell id="o7ktDmw5J8hLE7qY6G8m-7" value="" style="image;aspect=fixed;html=1;points=[];align=center;fontSize=12;image=img/lib/azure2/general/Files.svg;" vertex="1" parent="o7ktDmw5J8hLE7qY6G8m-6">
          <mxGeometry y="15.201290322580682" width="21.538461538461537" height="23.56307692307692" as="geometry" />
        </mxCell>
        <mxCell id="o7ktDmw5J8hLE7qY6G8m-11" value="" style="image;aspect=fixed;html=1;points=[];align=center;fontSize=12;image=img/lib/azure2/general/Storage_Container.svg;" vertex="1" parent="1">
          <mxGeometry x="697" y="383" width="50" height="40.63" as="geometry" />
        </mxCell>
        <mxCell id="o7ktDmw5J8hLE7qY6G8m-12" value="$web" style="text;html=1;strokeColor=none;fillColor=none;align=center;verticalAlign=middle;whiteSpace=wrap;rounded=0;fontColor=#000000;fontFamily=Azure;fontSource=https%3A%2F%2Fc.s-microsoft.com%2Fstatic%2Ffonts%2Fsegoe-ui%2Fwest-european%2Fnormal%2Flatest.woff2;fontSize=12;" vertex="1" parent="1">
          <mxGeometry x="682" y="422" width="80" height="20" as="geometry" />
        </mxCell>
        <mxCell id="o7ktDmw5J8hLE7qY6G8m-13" value="" style="shape=curlyBracket;whiteSpace=wrap;html=1;rounded=1;labelPosition=left;verticalLabelPosition=middle;align=right;verticalAlign=middle;" vertex="1" parent="1">
          <mxGeometry x="754" y="361" width="20" height="94" as="geometry" />
        </mxCell>
        <mxCell id="o7ktDmw5J8hLE7qY6G8m-8" value="style.css;script.js;img.png" style="text;html=1;strokeColor=none;fillColor=none;align=left;verticalAlign=middle;whiteSpace=wrap;rounded=0;fontColor=#000000;fontFamily=Azure;fontSource=https%3A%2F%2Fc.s-microsoft.com%2Fstatic%2Ffonts%2Fsegoe-ui%2Fwest-european%2Fnormal%2Flatest.woff2;fontSize=11;" vertex="1" parent="1">
          <mxGeometry x="772.16" y="415" width="129.84" height="55.81" as="geometry" />
        </mxCell>
        <mxCell id="o7ktDmw5J8hLE7qY6G8m-14" value="" style="rounded=1;whiteSpace=wrap;html=1;fillColor=#ebf0fb;strokeWidth=1;strokeColor=none;" vertex="1" parent="1">
          <mxGeometry x="-20" y="258" width="300" height="125" as="geometry" />
        </mxCell>
        <mxCell id="o7ktDmw5J8hLE7qY6G8m-15" value="" style="rounded=1;whiteSpace=wrap;html=1;fillColor=#ebf0fb;strokeWidth=1;strokeColor=none;" vertex="1" parent="1">
          <mxGeometry x="-20" y="387.5" width="300" height="125" as="geometry" />
        </mxCell>
        <mxCell id="o7ktDmw5J8hLE7qY6G8m-9" value="" style="image;aspect=fixed;html=1;points=[];align=center;fontSize=12;image=img/lib/azure2/app_services/API_Management_Services.svg;" vertex="1" parent="1">
          <mxGeometry y="295.02" width="55" height="50.96" as="geometry" />
        </mxCell>
        <mxCell id="o7ktDmw5J8hLE7qY6G8m-17" value="Azure API&lt;div&gt;Management&lt;/div&gt;" style="text;html=1;strokeColor=none;fillColor=none;align=center;verticalAlign=middle;whiteSpace=wrap;rounded=0;fontColor=#000000;fontFamily=Azure;fontSource=https%3A%2F%2Fc.s-microsoft.com%2Fstatic%2Ffonts%2Fsegoe-ui%2Fwest-european%2Fnormal%2Flatest.woff2;fontSize=12;" vertex="1" parent="1">
          <mxGeometry x="-12.5" y="270" width="80" height="20" as="geometry" />
        </mxCell>
        <mxCell id="o7ktDmw5J8hLE7qY6G8m-10" value="" style="image;aspect=fixed;html=1;points=[];align=center;fontSize=12;image=img/lib/azure2/app_services/App_Services.svg;" vertex="1" parent="1">
          <mxGeometry x="173" y="415" width="55" height="55" as="geometry" />
        </mxCell>
        <mxCell id="o7ktDmw5J8hLE7qY6G8m-26" value="" style="edgeStyle=orthogonalEdgeStyle;rounded=0;orthogonalLoop=1;jettySize=auto;html=1;fontColor=#007FFF;strokeColor=#000000;endArrow=block;endFill=1;entryX=-0.006;entryY=0.318;entryDx=0;entryDy=0;entryPerimeter=0;exitX=0.98;exitY=0.538;exitDx=0;exitDy=0;exitPerimeter=0;startArrow=none;startFill=0;" edge="1" parent="1">
          <mxGeometry relative="1" as="geometry">
            <mxPoint x="55" y="448.9299999999999" as="sourcePoint" />
            <mxPoint x="172" y="448.9099999999999" as="targetPoint" />
          </mxGeometry>
        </mxCell>
        <mxCell id="o7ktDmw5J8hLE7qY6G8m-27" value="" style="edgeStyle=orthogonalEdgeStyle;rounded=0;orthogonalLoop=1;jettySize=auto;html=1;fontColor=#007FFF;strokeColor=#000000;endArrow=none;endFill=0;entryX=-0.006;entryY=0.318;entryDx=0;entryDy=0;entryPerimeter=0;exitX=0.98;exitY=0.538;exitDx=0;exitDy=0;exitPerimeter=0;startArrow=block;startFill=1;" edge="1" parent="1">
          <mxGeometry relative="1" as="geometry">
            <mxPoint x="55" y="435.9299999999999" as="sourcePoint" />
            <mxPoint x="172" y="435.9099999999999" as="targetPoint" />
          </mxGeometry>
        </mxCell>
        <mxCell id="o7ktDmw5J8hLE7qY6G8m-28" value="GET&lt;div&gt;/index&lt;/div&gt;" style="text;html=1;strokeColor=none;fillColor=none;align=center;verticalAlign=middle;whiteSpace=wrap;rounded=0;fontColor=#000000;fontFamily=Azure;fontSource=https%3A%2F%2Fc.s-microsoft.com%2Fstatic%2Ffonts%2Fsegoe-ui%2Fwest-european%2Fnormal%2Flatest.woff2;fontSize=12;" vertex="1" parent="1">
          <mxGeometry x="69" y="410" width="80" height="20" as="geometry" />
        </mxCell>
        <mxCell id="o7ktDmw5J8hLE7qY6G8m-29" value="" style="sketch=0;aspect=fixed;pointerEvents=1;shadow=0;dashed=0;html=1;strokeColor=none;labelPosition=center;verticalLabelPosition=bottom;verticalAlign=top;align=center;fillColor=#00188D;shape=mxgraph.mscae.enterprise.application" vertex="1" parent="1">
          <mxGeometry y="423.63" width="55" height="37.4" as="geometry" />
        </mxCell>
        <mxCell id="o7ktDmw5J8hLE7qY6G8m-30" value="Azure App&lt;div&gt;Services&lt;/div&gt;" style="text;html=1;strokeColor=none;fillColor=none;align=center;verticalAlign=middle;whiteSpace=wrap;rounded=0;fontColor=#000000;fontFamily=Azure;fontSource=https%3A%2F%2Fc.s-microsoft.com%2Fstatic%2Ffonts%2Fsegoe-ui%2Fwest-european%2Fnormal%2Flatest.woff2;fontSize=12;" vertex="1" parent="1">
          <mxGeometry x="160.5" y="473.81" width="80" height="20" as="geometry" />
        </mxCell>
        <mxCell id="f0Yy0Vt2ueYXvtgh_L0p-28" value="" style="edgeStyle=orthogonalEdgeStyle;rounded=1;orthogonalLoop=1;jettySize=auto;html=1;fontColor=#007FFF;strokeColor=#000000;endArrow=none;endFill=0;startArrow=block;startFill=1;curved=0;" parent="1" edge="1">
          <mxGeometry relative="1" as="geometry">
            <mxPoint x="227" y="437" as="sourcePoint" />
            <mxPoint x="420" y="590" as="targetPoint" />
            <Array as="points">
              <mxPoint x="360" y="437" />
              <mxPoint x="360" y="590" />
            </Array>
          </mxGeometry>
        </mxCell>
        <mxCell id="o7ktDmw5J8hLE7qY6G8m-31" value="" style="edgeStyle=orthogonalEdgeStyle;rounded=1;orthogonalLoop=1;jettySize=auto;html=1;fontColor=#007FFF;strokeColor=#000000;endArrow=block;endFill=1;startArrow=none;startFill=0;curved=0;entryX=0.017;entryY=0.514;entryDx=0;entryDy=0;entryPerimeter=0;exitX=0.994;exitY=0.642;exitDx=0;exitDy=0;exitPerimeter=0;" edge="1" parent="1" source="o7ktDmw5J8hLE7qY6G8m-10" target="f0Yy0Vt2ueYXvtgh_L0p-6">
          <mxGeometry relative="1" as="geometry">
            <mxPoint x="233" y="449" as="sourcePoint" />
            <mxPoint x="430" y="605" as="targetPoint" />
            <Array as="points">
              <mxPoint x="230" y="450" />
              <mxPoint x="340" y="450" />
              <mxPoint x="340" y="605" />
            </Array>
          </mxGeometry>
        </mxCell>
        <mxCell id="o7ktDmw5J8hLE7qY6G8m-32" value="https://www.contoso.com/index" style="text;html=1;strokeColor=none;fillColor=none;align=center;verticalAlign=middle;whiteSpace=wrap;rounded=0;fontColor=#000000;fontFamily=Azure;fontSource=https%3A%2F%2Fc.s-microsoft.com%2Fstatic%2Ffonts%2Fsegoe-ui%2Fwest-european%2Fnormal%2Flatest.woff2;fontSize=12;" vertex="1" parent="1">
          <mxGeometry x="339" y="409.9" width="80" height="20" as="geometry" />
        </mxCell>
        <mxCell id="o7ktDmw5J8hLE7qY6G8m-33" value="http://static.contoso.com/style.css" style="text;html=1;strokeColor=none;fillColor=none;align=center;verticalAlign=middle;whiteSpace=wrap;rounded=0;fontColor=#000000;fontFamily=Azure;fontSource=https%3A%2F%2Fc.s-microsoft.com%2Fstatic%2Ffonts%2Fsegoe-ui%2Fwest-european%2Fnormal%2Flatest.woff2;fontSize=12;" vertex="1" parent="1">
          <mxGeometry x="419" y="380.9" width="181" height="20" as="geometry" />
        </mxCell>
        <mxCell id="o7ktDmw5J8hLE7qY6G8m-19" value="POST&lt;div&gt;/api/...&lt;/div&gt;" style="text;html=1;strokeColor=none;fillColor=none;align=center;verticalAlign=middle;whiteSpace=wrap;rounded=0;fontColor=#000000;fontFamily=Azure;fontSource=https%3A%2F%2Fc.s-microsoft.com%2Fstatic%2Ffonts%2Fsegoe-ui%2Fwest-european%2Fnormal%2Flatest.woff2;fontSize=12;" vertex="1" parent="1">
          <mxGeometry x="11" y="373" width="80" height="20" as="geometry" />
        </mxCell>
        <mxCell id="o7ktDmw5J8hLE7qY6G8m-18" value="" style="endArrow=block;startArrow=block;html=1;rounded=0;startFill=1;endFill=1;exitX=0.473;exitY=-0.036;exitDx=0;exitDy=0;exitPerimeter=0;" edge="1" parent="1">
          <mxGeometry x="-0.0004" width="50" height="50" relative="1" as="geometry">
            <mxPoint x="29.014999999999873" y="413.02" as="sourcePoint" />
            <mxPoint x="29" y="347" as="targetPoint" />
            <Array as="points">
              <mxPoint x="29" y="390" />
            </Array>
            <mxPoint as="offset" />
          </mxGeometry>
        </mxCell>
        <mxCell id="o7ktDmw5J8hLE7qY6G8m-41" value="callouts" parent="0" />
        <mxCell id="o7ktDmw5J8hLE7qY6G8m-47" value="1" style="ellipse;whiteSpace=wrap;html=1;aspect=fixed;fillColor=#417a31;strokeColor=none;fontColor=#FFFFFF;fontSize=18;fontFamily=Azure;fontSource=https%3A%2F%2Fc.s-microsoft.com%2Fstatic%2Ffonts%2Fsegoe-ui%2Fwest-european%2Fnormal%2Flatest.woff2;verticalAlign=top;labelPosition=center;verticalLabelPosition=middle;align=center;" vertex="1" parent="o7ktDmw5J8hLE7qY6G8m-41">
          <mxGeometry x="370" y="512.5" width="35" height="35" as="geometry" />
        </mxCell>
        <mxCell id="o7ktDmw5J8hLE7qY6G8m-48" value="2" style="ellipse;whiteSpace=wrap;html=1;aspect=fixed;fillColor=#417a31;strokeColor=none;fontColor=#FFFFFF;fontSize=18;fontFamily=Azure;fontSource=https%3A%2F%2Fc.s-microsoft.com%2Fstatic%2Ffonts%2Fsegoe-ui%2Fwest-european%2Fnormal%2Flatest.woff2;verticalAlign=top;labelPosition=center;verticalLabelPosition=middle;align=center;horizontal=1;" vertex="1" parent="o7ktDmw5J8hLE7qY6G8m-41">
          <mxGeometry x="138" y="398.75" width="35" height="35" as="geometry" />
        </mxCell>
        <mxCell id="o7ktDmw5J8hLE7qY6G8m-49" value="3" style="ellipse;whiteSpace=wrap;html=1;aspect=fixed;fillColor=#417a31;strokeColor=none;fontColor=#FFFFFF;fontSize=18;fontFamily=Azure;fontSource=https%3A%2F%2Fc.s-microsoft.com%2Fstatic%2Ffonts%2Fsegoe-ui%2Fwest-european%2Fnormal%2Flatest.woff2;verticalAlign=top;labelPosition=center;verticalLabelPosition=middle;align=center;horizontal=1;" vertex="1" parent="o7ktDmw5J8hLE7qY6G8m-41">
          <mxGeometry x="60" y="303" width="35" height="35" as="geometry" />
        </mxCell>
        <mxCell id="o7ktDmw5J8hLE7qY6G8m-50" value="4" style="ellipse;whiteSpace=wrap;html=1;aspect=fixed;fillColor=#417a31;strokeColor=none;fontColor=#FFFFFF;fontSize=18;fontFamily=Azure;fontSource=https%3A%2F%2Fc.s-microsoft.com%2Fstatic%2Ffonts%2Fsegoe-ui%2Fwest-european%2Fnormal%2Flatest.woff2;verticalAlign=top;labelPosition=center;verticalLabelPosition=middle;align=center;horizontal=1;" vertex="1" parent="o7ktDmw5J8hLE7qY6G8m-41">
          <mxGeometry x="300" y="585" width="35" height="35" as="geometry" />
        </mxCell>
        <mxCell id="o7ktDmw5J8hLE7qY6G8m-51" value="5" style="ellipse;whiteSpace=wrap;html=1;aspect=fixed;fillColor=#417a31;strokeColor=none;fontColor=#FFFFFF;fontSize=18;fontFamily=Azure;fontSource=https%3A%2F%2Fc.s-microsoft.com%2Fstatic%2Ffonts%2Fsegoe-ui%2Fwest-european%2Fnormal%2Flatest.woff2;verticalAlign=top;labelPosition=center;verticalLabelPosition=middle;align=center;horizontal=1;" vertex="1" parent="o7ktDmw5J8hLE7qY6G8m-41">
          <mxGeometry x="550" y="409.48" width="35" height="35" as="geometry" />
        </mxCell>
        <mxCell id="o7ktDmw5J8hLE7qY6G8m-52" value="" style="rounded=1;whiteSpace=wrap;html=1;fillColor=#f5f5f5;strokeWidth=1;strokeColor=none;fontColor=#333333;opacity=50;" vertex="1" parent="o7ktDmw5J8hLE7qY6G8m-41">
          <mxGeometry x="-20" y="258" width="300" height="125" as="geometry" />
        </mxCell>
      </root>
    </mxGraphModel>
  </diagram>
</mxfile>
